<svg xmlns="http://www.w3.org/2000/svg" width="215" height="47" viewBox="0 0 215 47">
  <g id="mob_im_gnb_logo" transform="translate(-2020 -5159.463)">
    <g id="그룹_343" data-name="그룹 343" transform="translate(2020 5159.811)">
      <rect id="사각형_514" data-name="사각형 514" width="215" height="47" transform="translate(0 -0.348)" fill="#fff" opacity="0"/>
      <g id="그룹_101" data-name="그룹 101" transform="translate(0.347 4.965)">
        <g id="그룹_95" data-name="그룹 95" transform="translate(17.251 1.228)">
          <path id="패스_458" data-name="패스 458" d="M30.138,2.21h-.427v.7h-.452v-.7h-.433V4.291h-1.4V2.578h.924V2.21h-1.17a.2.2,0,0,0-.187.213V4.446a.2.2,0,0,0,.187.213h1.377a.516.516,0,0,0,.265-.09V5.4h.433V3.276H29.7V5.4h.433V2.21Z" transform="translate(-26.99 -2.21)" fill="#fff"/>
        </g>
        <g id="그룹_96" data-name="그룹 96" transform="translate(11.366 1.784)">
          <path id="패스_459" data-name="패스 459" d="M20.38,3.238l.808,1.913L18.68,6.2l.142.336,2.211-.931c.006,0,.013-.006.019-.006a.024.024,0,0,1,.019-.006c.1-.045.233-.162.207-.226h0l.336.8L22.022,6,20.787,3.07Z" transform="translate(-18.165 -3.07)" fill="#fff"/>
          <path id="패스_460" data-name="패스 460" d="M19.258,5.671c.582-.246.853-.737.659-1.2a.932.932,0,0,0-1.312-.368c-.582.246-.853.737-.659,1.2A.93.93,0,0,0,19.258,5.671ZM18.735,4.43c.33-.136.646-.078.769.22s-.058.569-.381.7-.646.078-.769-.22S18.4,4.566,18.735,4.43Z" transform="translate(-17.884 -3.396)" fill="#fff"/>
        </g>
        <g id="그룹_97" data-name="그룹 97" transform="translate(22.61 1.842)">
          <path id="패스_461" data-name="패스 461" d="M38.148,3.9l-.711-.271.116-.31-.407-.162-.123.317L36.3,3.2l-.129.343,1.842.7Z" transform="translate(-35.595 -3.16)" fill="#fff"/>
          <path id="패스_462" data-name="패스 462" d="M40.179,4.635l-.4-.155-.7,1.829.4.155.3-.789.5.194.129-.336-.5-.194Z" transform="translate(-36.624 -3.627)" fill="#fff"/>
          <path id="패스_463" data-name="패스 463" d="M37.878,7.187l-.291-.11L35.409,6.25l-.129.343,2.262.86-.265.692.407.155L38,7.459a.205.205,0,0,0,.013-.09A.219.219,0,0,0,37.878,7.187Z" transform="translate(-35.28 -4.253)" fill="#fff"/>
          <path id="패스_464" data-name="패스 464" d="M36.41,5.647c.562.213,1,.116,1.151-.265s-.116-.75-.679-.963-1-.116-1.144.271S35.847,5.434,36.41,5.647Zm.355-.931c.291.11.452.323.388.5s-.336.233-.627.123-.452-.323-.381-.5S36.474,4.607,36.765,4.717Z" transform="translate(-35.427 -3.566)" fill="#fff"/>
        </g>
        <g id="그룹_98" data-name="그룹 98" transform="translate(26.785 4.57)">
          <path id="패스_465" data-name="패스 465" d="M43.511,10.871,44.4,9.824l-.33-.278-.892,1.047-.433-.368.892-1.047L43.317,8.9l-.9,1.041-.44-.375-.239.278,2.514,2.146.239-.278Z" transform="translate(-41.74 -7.918)" fill="#fff"/>
          <path id="패스_466" data-name="패스 466" d="M45.26,10.476l.259.22c.071.045.259-.162.271-.175l1.021-1.2a.242.242,0,0,0,.045-.078.219.219,0,0,0-.065-.22l-.233-.2L44.866,7.38l-.246.271,1.765,1.506-.924,1.079Z" transform="translate(-42.758 -7.38)" fill="#fff"/>
        </g>
        <g id="그룹_99" data-name="그룹 99" transform="translate(6.313 4.272)">
          <path id="패스_467" data-name="패스 467" d="M12.047,8.62,13,7.786l-.239-.278L10.819,9.2l-.271-.31L12.493,7.2l-.239-.278-2.068,1.8h0l-.045.039a.208.208,0,0,0-.019.3l.472.543a.208.208,0,0,0,.3.019l.045-.039.187-.162.595-.517.175.2-1.151,1,.239.278,2.611-2.275-.239-.278-1.131.989Z" transform="translate(-10.067 -6.92)" fill="#fff"/>
          <path id="패스_468" data-name="패스 468" d="M14.851,10.161c.213.246.368.756-.478,1.493s-1.332.511-1.545.271-.368-.756.478-1.493S14.644,9.916,14.851,10.161Zm-1.306.543c-.549.485-.543.75-.388.931s.42.226.976-.252.543-.75.388-.931S14.1,10.219,13.546,10.7Z" transform="translate(-10.984 -7.983)" fill="#fff"/>
        </g>
        <path id="패스_469" data-name="패스 469" d="M7.957,17.848a.477.477,0,0,1-.478.478A.486.486,0,0,1,7,17.848a.478.478,0,0,1,.957,0Z" transform="translate(-2.669 -6.343)" fill="#fff"/>
        <path id="패스_470" data-name="패스 470" d="M51.557,17.848a.478.478,0,1,1-.478-.478A.477.477,0,0,1,51.557,17.848Z" transform="translate(-18.088 -6.343)" fill="#fff"/>
        <path id="패스_471" data-name="패스 471" d="M5.292,25.042a1.993,1.993,0,0,1-.006.44,1.159,1.159,0,0,1-1.448,1.1,1.214,1.214,0,0,1-1.015-1.525,2.113,2.113,0,0,1,.084-.349Zm-2-.782c-.284-.039-.517-.045-.646-.31H2.629l-.162,1.157a1.646,1.646,0,0,0,1.357,2.03c.957.136,1.648-.465,1.8-1.564L5.8,24.4H5.783c-.11.233-.459.149-.679.116Z" transform="translate(-1.058 -8.67)" fill="#fff"/>
        <path id="패스_472" data-name="패스 472" d="M4.931,31.794a1.291,1.291,0,0,1-1.267,1.351,1.188,1.188,0,0,1-1.377-1.086,1.319,1.319,0,0,1,1.254-1.37A1.2,1.2,0,0,1,4.931,31.794Zm.355,0a1.726,1.726,0,0,0-1.842-1.648,1.7,1.7,0,0,0-1.5,1.933,1.732,1.732,0,0,0,1.874,1.609A1.684,1.684,0,0,0,5.286,31.794Z" transform="translate(-0.878 -10.858)" fill="#fff"/>
        <path id="패스_473" data-name="패스 473" d="M3.505,37.326c-.259.09-.44.149-.5.44l-.013.006-.284-.808.013-.006c.226.194.407.129.666.039l1.836-.64c.259-.09.44-.155.5-.44l.013-.006.233.672H5.961a.357.357,0,0,0-.09.11l-.071.1L4.268,39.206,6.006,38.6c.259-.09.44-.149.491-.44l.013-.006.284.808-.013.006c-.22-.194-.407-.129-.659-.039l-2.573.9a1.332,1.332,0,0,1,.284-.853l1.448-2.269Z" transform="translate(-1.152 -12.9)" fill="#fff"/>
        <path id="패스_474" data-name="패스 474" d="M9.112,44.011,9.106,44a1.2,1.2,0,0,0-.22-.886,1.251,1.251,0,0,0-1.8-.44,1.368,1.368,0,0,0-.414,1.907,2.588,2.588,0,0,0,.44.517l.588-.375c.187-.123.388-.252.343-.485l.013-.006.4.627-.013.006a.558.558,0,0,0-.187.09l-.944.6a.6.6,0,0,0-.175.136,6.1,6.1,0,0,1-.743-.9,1.721,1.721,0,0,1,.336-2.56,1.763,1.763,0,0,1,2.508.782,3.99,3.99,0,0,1,.343.685Z" transform="translate(-2.313 -15.041)" fill="#fff"/>
        <path id="패스_475" data-name="패스 475" d="M10.746,48.09a1.037,1.037,0,0,0-.336-.265v-.013L10.8,47.8a.4.4,0,0,1,.149.013.9.9,0,0,1,.213.2l.336.355a1.037,1.037,0,0,0,.336.265v.013l-.388.013a.388.388,0,0,1-.149-.013.886.886,0,0,1-.213-.2Z" transform="translate(-3.875 -17.104)" fill="#fff"/>
        <path id="패스_476" data-name="패스 476" d="M12.314,50.683l.452.42a1.185,1.185,0,0,0,.886.317l.013.006-.562.368L11.5,50.56l.006-.013c.252.084.446-.22.575-.394L13.193,48.7c.136-.175.375-.44.233-.666l.006-.013,1.235.944a.491.491,0,0,0,.194.123l.013.006-.349.452-.013-.006a.685.685,0,0,0-.336-.5,3.308,3.308,0,0,0-.414-.278l-.549.717.459.349a.51.51,0,0,0,.187.11l.013.006-.31.407-.013-.006c.026-.155-.142-.278-.259-.368l-.284-.22Z" transform="translate(-4.261 -17.182)" fill="#fff"/>
        <path id="패스_477" data-name="패스 477" d="M18.168,54.008a1.217,1.217,0,0,1-1.028-.039,1.182,1.182,0,0,1-.653-.679,1.257,1.257,0,0,1,.181-.97l.549-1.176c.09-.2.271-.5.084-.692l.006-.013.834.388-.006.013c-.259-.019-.381.317-.472.511l-.549,1.176c-.271.588-.155.976.3,1.183a.87.87,0,0,0,.789-.006.611.611,0,0,0,.278-.355l.614-1.325c.09-.2.271-.511.09-.692l.006-.013.84.388v.013c-.265-.019-.388.31-.478.517L18.788,53.9c-.09.2-.265.511-.084.7l-.006.013-.646-.3Z" transform="translate(-6.01 -18.038)" fill="#fff"/>
        <path id="패스_478" data-name="패스 478" d="M22.884,53.671c.052-.213.175-.549-.045-.7l.006-.013.9.22-.006.013c-.259.032-.317.388-.368.6l-.44,1.777c-.052.213-.168.549.045.7l-.006.013-.9-.22V56.05c.259-.026.317-.381.368-.595Z" transform="translate(-7.999 -18.929)" fill="#fff"/>
        <path id="패스_479" data-name="패스 479" d="M30.936,56.382a1.319,1.319,0,0,1-1.823.175,1.246,1.246,0,0,1-.31-.937l-.084-1.293c-.013-.22,0-.575-.259-.653V53.66l.924-.058v.013c-.239.11-.181.459-.168.679l.084,1.293c.039.646.33.924.834.892a.858.858,0,0,0,.685-.388.625.625,0,0,0,.071-.446l-.1-1.461c-.013-.22-.006-.575-.259-.653v-.013l.918-.058.006.013c-.239.11-.187.459-.175.685l.116,1.829c.013.22.006.575.259.653v.013l-.711.045Z" transform="translate(-10.258 -19.106)" fill="#fff"/>
        <path id="패스_480" data-name="패스 480" d="M35.579,54.927c.09.259.149.44.44.5l.006.013-.814.278L35.2,55.7c.194-.226.129-.407.045-.666l-.633-1.829c-.09-.259-.155-.44-.44-.5L34.17,52.7l.672-.233v.006a.284.284,0,0,0,.11.09l.1.071,2.411,1.545-.6-1.739c-.09-.259-.149-.446-.44-.5l-.006-.013.808-.278.006.013c-.194.22-.129.4-.039.659l.886,2.579a1.4,1.4,0,0,1-.853-.291l-2.262-1.454Z" transform="translate(-12.278 -18.466)" fill="#fff"/>
        <path id="패스_481" data-name="패스 481" d="M40.22,51.37c-.11-.194-.259-.517-.524-.472l-.006-.013.8-.465.006.013c-.168.2.045.5.155.685l.918,1.584c.11.187.265.511.517.465l.006.013-.8.465-.006-.013c.168-.2-.039-.491-.149-.685Z" transform="translate(-14.23 -18.031)" fill="#fff"/>
        <path id="패스_482" data-name="패스 482" d="M44.144,48.228c-.116-.349-.239-.763-.549-.666l-.013-.013.556-.459,1.131,3.393a1.038,1.038,0,0,1-.866-.123l-1.829-1.073a1.5,1.5,0,0,0-.73-.3l-.013-.013.549-.452.032.045a2.053,2.053,0,0,0,.388.265l1.939,1.144Z" transform="translate(-14.987 -16.853)" fill="#fff"/>
        <path id="패스_483" data-name="패스 483" d="M48.645,46.817l.44-.44a1.214,1.214,0,0,0,.349-.879l.013-.013.355.575-1.286,1.564-.013-.006c.09-.246-.207-.452-.375-.595l-1.416-1.163c-.175-.142-.427-.388-.659-.259l-.013-.013.989-1.2a.6.6,0,0,0,.129-.194l.013-.013.44.362-.006.013a.685.685,0,0,0-.511.317,2.105,2.105,0,0,0-.284.407l.7.575.368-.446a.455.455,0,0,0,.11-.181l.006-.013.394.33-.006.013c-.155-.026-.284.129-.381.246l-.226.278Z" transform="translate(-16.475 -15.824)" fill="#fff"/>
        <path id="패스_484" data-name="패스 484" d="M49,41.23c.31-.575.776-.724,1.163-.511a.956.956,0,0,1,.388,1.086l1.105-.194a3.336,3.336,0,0,0,.97-.368l-.213.394a.642.642,0,0,1-.485.381L51,42.193l-.814.065c.136-.368.194-.853-.213-1.066a.551.551,0,0,0-.769.291,2.577,2.577,0,0,0-.123.31L51,42.826c.2.1.5.3.692.123l.013.006-.44.814-.013-.006c.039-.259-.291-.4-.485-.5l-1.609-.873c-.194-.1-.491-.3-.692-.129l-.013-.006Z" transform="translate(-17.328 -14.568)" fill="#fff"/>
        <path id="패스_485" data-name="패스 485" d="M51.739,36.458a1.106,1.106,0,0,0-.524.633c-.084.265-.084.627.233.73.633.2,1.131-1.4,1.984-1.125A1.183,1.183,0,0,1,54,38.242a2.492,2.492,0,0,1-.4.782l-.621-.052a1.69,1.69,0,0,0,.7-.892c.084-.265.052-.711-.271-.814-.724-.226-1.1,1.409-2.075,1.1-.582-.181-.614-.853-.44-1.416a2.482,2.482,0,0,1,.317-.659Z" transform="translate(-18.161 -13.034)" fill="#fff"/>
        <path id="패스_486" data-name="패스 486" d="M52.411,34.488c-.22-.039-.562-.123-.7.1H51.7l.149-.911h.013c.052.252.414.284.627.317l1.81.291c.213.032.562.123.692-.1H55l-.149.911h-.013c-.045-.252-.407-.284-.621-.317Z" transform="translate(-18.477 -12.111)" fill="#fff"/>
        <path id="패스_487" data-name="패스 487" d="M54.664,29.933c.278.006.465.013.621-.239H55.3l-.019.963h-.013c-.09-.246-.446-.226-.659-.226l-2.165-.039-.006.427a.847.847,0,0,0,.181.582v.013l-.575-.181v-.019a.905.905,0,0,0,.039-.181v-.123l.032-1.81a.623.623,0,0,0-.026-.226V28.86l.575.168v.013c-.175.058-.2.252-.2.414l-.006.44Z" transform="translate(-18.597 -10.406)" fill="#fff"/>
        <path id="패스_488" data-name="패스 488" d="M54.148,24.563c.291-.045.433-.071.569-.343h.013l.155.931h-.013c-.162-.213-.465-.129-.692-.09l-.711.116-1.144,1.008a1.2,1.2,0,0,0-.42.536l-.071-.433a.429.429,0,0,1,.071-.381l1.125-.976-.989-.446c-.136-.058-.381-.136-.465.155h-.013l-.142-.84,1.971.886Z" transform="translate(-18.378 -8.617)" fill="#fff"/>
        <g id="그룹_100" data-name="그룹 100" transform="translate(10.09 8.926)">
          <path id="패스_489" data-name="패스 489" d="M33.232,16.382c-7.019-1.293-8.571-2.262-8.571-2.262s-1.545.963-8.493,2.249c-.246.052-.246.162-.246.265.136,3.2.123,8.441-.013,11.938,0,4.085,8.28,7.181,8.629,7.31a.359.359,0,0,0,.233,0c.355-.129,8.629-3.225,8.629-7.31-.09-3.038-.155-10.193-.013-11.99C33.394,16.486,33.388,16.408,33.232,16.382Zm-4.247,2.366c.86.1,1.661.22,2.4.368V23.5c0,1.215-.4,1.6-1.2,1.6s-1.2-.375-1.2-1.6ZM21.869,18.6v2.094a2.734,2.734,0,0,0-2.65-1.8C20.092,18.754,20.984,18.664,21.869,18.6Zm-4.046,1.48h.75c1.467,0,2.023.621,2.023,2.243,0,1.842-.7,2.573-1.868,2.573h-.911V20.079Zm5.442,11.227h-.317V30.124h-.381V29.9c.22,0,.407-.058.472-.3h.233v1.706Zm1.176-.659c0,.543-.155.692-.491.692-.252,0-.433-.116-.42-.388h.3c0,.058.006.142.142.136.181,0,.162-.22.168-.317v-.11a.285.285,0,0,1-.252.116c-.271,0-.388-.187-.388-.536,0-.427.1-.646.472-.646s.485.246.478.646v.407Zm-1.687-4.285a2.588,2.588,0,0,1-.886-.53v8.1c-2.353-1.228-5.287-3.187-5.287-5.365V26.123h2.262a2.985,2.985,0,0,0,2.443-1.073c.032-.039.065-.078.1-.123.013-.026.032-.045.045-.071l.039-.058c.026-.032.039-.065.065-.1.006-.013.013-.019.019-.032.019-.039.045-.078.065-.116a.024.024,0,0,0,.006-.019,1.292,1.292,0,0,0,.065-.136.006.006,0,0,1,.006-.006,4.119,4.119,0,0,0,.175-.452,5.056,5.056,0,0,0,.226-1.467,5.978,5.978,0,0,0-.175-1.642c1.409-2.579,3.393-3.051,4.415-3.006,1.551.071,1.739,1.907.982,3.012a5.858,5.858,0,0,1-3.995,1.952c-.394,1.991.42,2.488.827,2.585,1.286.291,3.07-1.26,3.671-3.594.065-.239.22-.375.162-.045C27.422,25.192,25.075,27.2,22.755,26.362Zm2.747,3.49a3.77,3.77,0,0,0-.42,1.454h-.323a3.477,3.477,0,0,1,.271-1.047,2.7,2.7,0,0,1,.194-.388h-.679V29.62h.963v.233Zm1.066,0a3.77,3.77,0,0,0-.42,1.454h-.33a3.679,3.679,0,0,1,.271-1.047,2.234,2.234,0,0,1,.2-.388h-.679V29.62h.963v.233Zm6.16-1.28c0,2.178-2.941,4.143-5.3,5.371v-9.6c.175,1.26,1.241,1.978,2.76,1.978a2.648,2.648,0,0,0,2.54-1.28Z" transform="translate(-15.91 -14.12)" fill="#fff"/>
          <path id="패스_490" data-name="패스 490" d="M28.278,38.44c-.168,0-.149.155-.149.375,0,.123-.019.31.155.31.155,0,.155-.168.155-.31C28.446,38.608,28.453,38.427,28.278,38.44Z" transform="translate(-20.231 -22.72)" fill="#fff"/>
          <path id="패스_491" data-name="패스 491" d="M30.224,20.4c-.427-.078-1.48.627-2.417,3.238-.136.381-.239.724-.317,1.028C30.153,23.965,31.019,20.546,30.224,20.4Z" transform="translate(-20.005 -16.338)" fill="#fff"/>
        </g>
        <path id="패스_492" data-name="패스 492" d="M35.613,22.63a13.828,13.828,0,0,1-13.632,14.02A13.833,13.833,0,0,1,8.35,22.63,13.828,13.828,0,0,1,21.982,8.61,13.828,13.828,0,0,1,35.613,22.63Z" transform="translate(-3.147 -3.245)" fill="none" stroke="#fff" stroke-width="0.609"/>
        <path id="패스_493" data-name="패스 493" d="M.3,19.694c0,10.691,8.448,19.384,18.835,19.384S37.97,30.385,37.97,19.694,29.522.31,19.135.31.3,9,.3,19.694Z" transform="translate(-0.3 -0.31)" fill="none" stroke="#fff" stroke-width="0.609"/>
      </g>
      <g id="그룹_102" data-name="그룹 102" transform="translate(42.619 9.761)">
        <path id="패스_494" data-name="패스 494" d="M136.547,8.939h-2.728V7.73h-1.584V8.939H129.45v1.312h7.1Z" transform="translate(-88.244 -7.73)" fill="#fff"/>
        <path id="패스_495" data-name="패스 495" d="M157.276,20.458V15.5h-1.558v4.958h-2.03V15.519h-1.558v4.938H150.05V21.77h11.874V20.458Z" transform="translate(-95.529 -10.478)" fill="#fff"/>
        <path id="패스_496" data-name="패스 496" d="M97.053,9.28v7.465H87.28v1.312h8.758c.381-.026,1.008-.22,1.008-.452h0v3.115H98.63V9.28Z" transform="translate(-73.332 -8.278)" fill="#fff"/>
        <path id="패스_497" data-name="패스 497" d="M119.841,9.28h-1.532v2.508h-1.629V9.28h-1.564v7.472h-5.022V10.6H113.4V9.293h-4.195a.725.725,0,0,0-.679.763v7.252a.725.725,0,0,0,.679.763h4.951a1.672,1.672,0,0,0,.95-.336v2.98h1.564V13.1H118.3v7.608h1.564V9.28Z" transform="translate(-80.846 -8.278)" fill="#fff"/>
        <path id="패스_498" data-name="패스 498" d="M145.328,8.97H143.77v7.045h1.558V12.99h1.946V11.678h-1.946Z" transform="translate(-93.309 -8.169)" fill="#fff"/>
        <path id="패스_499" data-name="패스 499" d="M139.795,20.89h-9.5V22.2H139v2.669h1.558V21.653a.757.757,0,0,0-.071-.317A.743.743,0,0,0,139.795,20.89Z" transform="translate(-88.545 -12.384)" fill="#fff"/>
        <path id="패스_500" data-name="패스 500" d="M160.248,16.994h1.222c.3-.045.33-1.054.33-1.112V10.239a.734.734,0,0,0-.071-.317.772.772,0,0,0-.7-.452h-9.12v1.312h8.338v6.212Z" transform="translate(-96.187 -8.345)" fill="#fff"/>
        <path id="패스_501" data-name="패스 501" d="M72.752,13.4h4.57V12.086H68.066V10.612h9.249V9.3H67.264a.764.764,0,0,0-.763.763v2.573a.764.764,0,0,0,.763.763h3.923v.944H65.7v1.312H78.142V14.342H72.752Z" transform="translate(-65.7 -8.285)" fill="#fff"/>
        <path id="패스_502" data-name="패스 502" d="M91.439,14.939c2.269,0,3.839-1.26,3.839-3.044S93.7,8.85,91.439,8.85,87.6,10.11,87.6,11.894,89.171,14.939,91.439,14.939Zm0-4.854c1.273,0,2.243.64,2.243,1.8s-.976,1.8-2.243,1.8-2.249-.64-2.249-1.8S90.166,10.085,91.439,10.085Z" transform="translate(-73.445 -8.126)" fill="#fff"/>
        <path id="패스_503" data-name="패스 503" d="M133.02,17.051c2.159,0,3.51-.879,3.51-2.366s-1.351-2.366-3.51-2.366-3.51.886-3.51,2.366S130.861,17.051,133.02,17.051Zm0-3.574c1.112,0,1.933.5,1.933,1.2s-.821,1.2-1.933,1.2-1.933-.5-1.933-1.2S131.908,13.477,133.02,13.477Z" transform="translate(-88.266 -9.353)" fill="#fff"/>
        <path id="패스_504" data-name="패스 504" d="M77.531,22.935c0,1.157-.8,2.915-4.815,2.915S67.9,24.092,67.9,22.935s.789-2.915,4.815-2.915S77.531,21.778,77.531,22.935Zm-4.815-1.609c-2.624,0-3.238.756-3.238,1.609s.614,1.609,3.238,1.609,3.238-.756,3.238-1.609S75.34,21.326,72.715,21.326Z" transform="translate(-66.478 -12.076)" fill="#fff"/>
      </g>
      <g id="그룹_104" data-name="그룹 104" transform="translate(42.619 26.702)">
        <path id="패스_505" data-name="패스 505" d="M65.7,44.527l.019-1.538L70.354,43l.019-3.206,1.8.013-.019,3.18,4.7.013-.013,1.525Zm.1-4.777L70.05,35.5l-3.633-.026.019-1.538,9.747.013-.019,1.538-3.658-.013,4.26,4.324-1.474,1.151L71.3,36.874l-4.059,4.091Z" transform="translate(-65.7 -33.94)" fill="#fff"/>
        <path id="패스_506" data-name="패스 506" d="M76.152,33.972v1.493H72.429l.052.058L76.727,39.8,75.292,40.94,71.3,36.868l-.026-.026-.026.026-4.014,4.066-1.409-1.17,4.227-4.247.058-.058H66.45V33.966h9.7m-4.007,5.862v3.193h4.68v1.493H65.732V43.021h4.654V39.828h1.758m4.04-5.888H66.417V35.5h3.62l-4.253,4.266,1.461,1.209,4.033-4.091,4.007,4.091,1.487-1.183-4.272-4.3h3.678V33.94ZM72.177,39.8H70.354v3.193H65.7v1.558H76.856V42.989h-4.68V39.8Z" transform="translate(-65.7 -33.94)" fill="#fff"/>
      </g>
      <g id="그룹_105" data-name="그룹 105" transform="translate(55.268 26.36)">
        <path id="패스_507" data-name="패스 507" d="M96.442,45.206l.019-11.8,1.816.013-.019,11.783Zm-4.3-3.975.019-5.811-4.893-.013.019-1.538L93,33.882a1.015,1.015,0,0,1,.737.226.98.98,0,0,1,.22.7v6.412H92.144Z" transform="translate(-87.27 -33.41)" fill="#fff"/>
        <path id="패스_508" data-name="패스 508" d="M98.239,33.442V45.193H96.474V33.442h1.765M93,33.895a.8.8,0,0,1,.944.918v6.4H92.176V35.388H87.3V33.895H93m5.274-.485H96.442V45.225h1.829V33.41ZM93,33.862H87.27V35.42h4.874v5.824h1.829V34.813a.829.829,0,0,0-.976-.95Z" transform="translate(-87.27 -33.41)" fill="#fff"/>
      </g>
      <g id="그룹_106" data-name="그룹 106" transform="translate(68.435 25.907)">
        <path id="패스_509" data-name="패스 509" d="M117.87,44.959l.019-4.292-4.266-.013L113.6,44.79l-1.79-.013.019-4.1-3.193-.019.019-1.5,9.211.013.019-6,1.816.013-.019,11.783Zm-9.094-7.317,2.876-2.469-2.424-.026.019-1.525,2.631.013.019-.924,1.8.013-.019.892,2.715.013-.019,1.525-2.424-.013,2.947,2.495-1.364,1.151-2.715-2.443-2.721,2.45Z" transform="translate(-108.64 -32.71)" fill="#fff"/>
        <path id="패스_510" data-name="패스 510" d="M113.666,32.742v.911h2.7v1.48h-2.495l.071.058,2.928,2.443-1.325,1.138-2.708-2.43-.019-.019-.019.019-2.676,2.43-1.3-1.112,2.85-2.469.065-.058h-2.463v-1.48h2.644v-.911h1.745m6,.452V44.946h-1.765V40.634h-4.3v4.117h-1.739V40.634h-3.18V39.187h9.224V33.195h1.765M113.7,32.71h-1.816v.911h-2.644v1.545h2.411l-2.876,2.495,1.351,1.157,2.7-2.45,2.728,2.45,1.377-1.183-2.96-2.463h2.437V33.628h-2.7V32.71Zm6,.452h-1.829v5.992H108.65v1.512h3.18v4.117h1.8V40.667h4.24v4.311H119.7V33.162Z" transform="translate(-108.644 -32.71)" fill="#fff"/>
      </g>
      <g id="그룹_107" data-name="그룹 107" transform="translate(81.692 26.276)">
        <path id="패스_511" data-name="패스 511" d="M132.962,45.167c-.575,0-.853-.252-.853-.769V40l1.8.013-.019.989,5.481.013.019-3.885-2.249-.013a3.371,3.371,0,0,1-.465.957,3.222,3.222,0,0,1-.776.763,4.125,4.125,0,0,1-1.028.511,3.952,3.952,0,0,1-1.215.187,3.876,3.876,0,0,1-1.39-.246,3.4,3.4,0,0,1-1.105-.672,3.123,3.123,0,0,1-.73-.989,2.8,2.8,0,0,1-.265-1.189,2.906,2.906,0,0,1,.259-1.228,3.229,3.229,0,0,1,.724-1,3.4,3.4,0,0,1,1.105-.672,3.932,3.932,0,0,1,1.409-.246,4.022,4.022,0,0,1,1.2.175,3.964,3.964,0,0,1,1.015.478,3.42,3.42,0,0,1,.769.724,3.033,3.033,0,0,1,.465.924l2.275.013.019-2.249,1.8.013-.019,11.783h-8.228Zm.931-1.525,5.481.013.019-1.105-5.5-.013Zm-.233-8.868a1.924,1.924,0,0,0-.666.116,1.689,1.689,0,0,0-.95.873,1.561,1.561,0,0,0-.149.679,1.5,1.5,0,0,0,.149.659,1.617,1.617,0,0,0,.394.511,2.149,2.149,0,0,0,.569.33,1.906,1.906,0,0,0,.653.116,1.961,1.961,0,0,0,.672-.116,1.8,1.8,0,0,0,.582-.336,1.71,1.71,0,0,0,.414-.5,1.3,1.3,0,0,0,.162-.653,1.43,1.43,0,0,0-.162-.685,1.788,1.788,0,0,0-1-.873A1.978,1.978,0,0,0,133.66,34.774Z" transform="translate(-130.157 -33.287)" fill="#fff"/>
        <path id="패스_512" data-name="패스 512" d="M133.653,33.312a4.231,4.231,0,0,1,1.189.168,3.63,3.63,0,0,1,1.008.478,3.13,3.13,0,0,1,.763.724,3,3,0,0,1,.465.918l.006.026H139.4V33.4h1.752V45.147h-8.2c-.562,0-.834-.246-.834-.75V40.034h1.752v1.008H139.4V37.106h-2.288l-.006.026a2.738,2.738,0,0,1-.452.937,3.169,3.169,0,0,1-.769.756,3.806,3.806,0,0,1-1.028.5,3.88,3.88,0,0,1-1.209.187,3.84,3.84,0,0,1-1.383-.246,3.545,3.545,0,0,1-1.1-.666,3.1,3.1,0,0,1-.73-.982,2.751,2.751,0,0,1-.265-1.183,2.878,2.878,0,0,1,.259-1.222,3.1,3.1,0,0,1,.724-.989,3.545,3.545,0,0,1,1.1-.666,3.81,3.81,0,0,1,1.4-.252m0,4.751a2.025,2.025,0,0,0,.679-.116,1.961,1.961,0,0,0,.588-.336,1.676,1.676,0,0,0,.42-.511,1.354,1.354,0,0,0,.162-.666,1.455,1.455,0,0,0-.162-.692,1.772,1.772,0,0,0-.42-.53,1.88,1.88,0,0,0-.595-.343,2.044,2.044,0,0,0-.672-.116,1.961,1.961,0,0,0-.672.116,1.7,1.7,0,0,0-.569.343,1.774,1.774,0,0,0-.394.53,1.618,1.618,0,0,0-.149.692,1.5,1.5,0,0,0,.149.666,1.483,1.483,0,0,0,.4.511,1.879,1.879,0,0,0,.575.33,1.8,1.8,0,0,0,.659.123m.22,5.6h5.533V42.516h-5.533v1.151m-.22-10.387a3.932,3.932,0,0,0-1.409.246,3.517,3.517,0,0,0-1.105.672,3.148,3.148,0,0,0-.73,1,2.935,2.935,0,0,0-.259,1.235,2.722,2.722,0,0,0,.271,1.2,3.243,3.243,0,0,0,.737.989,3.4,3.4,0,0,0,1.105.672,3.774,3.774,0,0,0,1.4.246,3.891,3.891,0,0,0,1.215-.187,3.766,3.766,0,0,0,1.034-.511,3.109,3.109,0,0,0,.776-.763,2.8,2.8,0,0,0,.452-.95h2.23v3.872H133.9V39.983h-1.816v4.4c0,.524.291.782.866.782h8.235v-11.8h-1.816v2.23h-2.256a3.068,3.068,0,0,0-.465-.931,3.448,3.448,0,0,0-.769-.73,3.724,3.724,0,0,0-1.021-.485,4.288,4.288,0,0,0-1.2-.168Zm0,4.751a1.909,1.909,0,0,1-1.209-.44,1.443,1.443,0,0,1-.394-.5,1.463,1.463,0,0,1-.142-.653,1.528,1.528,0,0,1,.142-.672,1.726,1.726,0,0,1,.388-.524,1.686,1.686,0,0,1,.556-.336,1.915,1.915,0,0,1,.659-.116,1.965,1.965,0,0,1,1.247.452,1.808,1.808,0,0,1,.414.524,1.453,1.453,0,0,1,.162.672,1.28,1.28,0,0,1-.162.646,1.727,1.727,0,0,1-.414.5,1.838,1.838,0,0,1-.582.33,1.924,1.924,0,0,1-.666.116Zm.252,5.6V42.549h5.468v1.086Z" transform="translate(-130.15 -33.28)" fill="#fff"/>
      </g>
      <g id="그룹_108" data-name="그룹 108" transform="translate(94.961 25.907)">
        <path id="패스_513" data-name="패스 513" d="M158.2,45.721a4.284,4.284,0,0,1-1.493-.259,3.527,3.527,0,0,1-1.176-.717,3.356,3.356,0,0,1-.776-1.073,3.189,3.189,0,0,1-.278-1.344,3.389,3.389,0,0,1,.381-1.616,3.3,3.3,0,0,1,1.079-1.176c-.032,0-.058-.006-.09-.006-.078,0-.162.006-.246.013-.116.006-.226.013-.336.013a3.359,3.359,0,0,1-1.273-.233,3.245,3.245,0,0,1-1-.621,2.8,2.8,0,0,1-.646-.9,2.663,2.663,0,0,1-.226-1.073,2.842,2.842,0,0,1,.427-1.506l-.866-.026.019-1.487,2.669.013.019-1.008,1.8.013-.019.976,2.753.013-.019,1.222,1.946.013.019-1.79,1.8.013-.019,6.638-1.745-.013a4.012,4.012,0,0,1,.827,1.131,3.215,3.215,0,0,1,.3,1.39,3.047,3.047,0,0,1-.3,1.338,3.313,3.313,0,0,1-.808,1.079,3.733,3.733,0,0,1-1.215.717A4.181,4.181,0,0,1,158.2,45.721Zm0-5.307a2.192,2.192,0,0,0-.743.129,2.048,2.048,0,0,0-.627.375,1.951,1.951,0,0,0-.44.595,1.891,1.891,0,0,0-.168.8,1.8,1.8,0,0,0,.608,1.364,1.928,1.928,0,0,0,.627.375,2.045,2.045,0,0,0,.743.129,2.411,2.411,0,0,0,.776-.129,2.111,2.111,0,0,0,.666-.375,1.877,1.877,0,0,0,.465-.588,1.709,1.709,0,0,0,.175-.776,1.768,1.768,0,0,0-.64-1.409,2.1,2.1,0,0,0-.666-.368A2.6,2.6,0,0,0,158.2,40.415Zm0-1.538a4.426,4.426,0,0,1,1.454.233,3.913,3.913,0,0,1,1.2.659l.026-1.2-2.01-.013.019-1.474,1.978.013.019-.679-2.01-.013.019-1.209-.84-.013a3.061,3.061,0,0,1,.414,1.532,2.575,2.575,0,0,1-.317,1.247,2.7,2.7,0,0,1-.892.982h.019a3.664,3.664,0,0,0,.465-.039A3.332,3.332,0,0,1,158.2,38.876Zm-2.934-3.594a1.433,1.433,0,0,0-1.054.4,1.414,1.414,0,0,0-.4,1.028,1.347,1.347,0,0,0,.4.976,1.412,1.412,0,0,0,1.054.407,1.462,1.462,0,0,0,1.079-.407,1.324,1.324,0,0,0,.414-.976,1.364,1.364,0,0,0-.414-1.028A1.5,1.5,0,0,0,155.261,35.283Z" transform="translate(-151.68 -32.71)" fill="#fff"/>
        <path id="패스_514" data-name="패스 514" d="M156.156,32.742v.989H158.9v1.241h1.991V33.195h1.752v6.586h-1.758V38.54h-2V37.118h2v-.724h-2V35.166h-.918l.032.052a2.823,2.823,0,0,1,.42,1.5,2.617,2.617,0,0,1-.31,1.241,2.791,2.791,0,0,1-.885.982l-.123.084.149-.026c.149-.026.3-.052.465-.071a3.884,3.884,0,0,1,.478-.026,4.387,4.387,0,0,1,1.448.233,3.891,3.891,0,0,1,1.183.653h-.006l.065.058a3.373,3.373,0,0,1,.834,1.1,3.184,3.184,0,0,1,.3,1.383,3.1,3.1,0,0,1-.291,1.332,3.313,3.313,0,0,1-.808,1.079,3.749,3.749,0,0,1-1.209.717,4.308,4.308,0,0,1-1.519.259,4.248,4.248,0,0,1-1.487-.259,3.662,3.662,0,0,1-1.176-.717,3.337,3.337,0,0,1-.769-1.073,3.18,3.18,0,0,1-.278-1.338,3.363,3.363,0,0,1,.381-1.609,3.17,3.17,0,0,1,1.079-1.17l.129-.084-.155.026a2.327,2.327,0,0,1-.323.039c-.11.006-.226.013-.336.013a3.3,3.3,0,0,1-1.267-.233,3.212,3.212,0,0,1-.989-.621,2.661,2.661,0,0,1-.64-.9,2.633,2.633,0,0,1-.226-1.067,2.889,2.889,0,0,1,.42-1.5l.032-.052h-.866V33.738H154.4v-.989h1.758m-.892,5.365a1.5,1.5,0,0,0,1.092-.407,1.328,1.328,0,0,0,.414-.989,1.417,1.417,0,0,0-.414-1.041,1.493,1.493,0,0,0-1.092-.407,1.417,1.417,0,0,0-1.06.407,1.433,1.433,0,0,0-.4,1.041,1.377,1.377,0,0,0,.4.989,1.442,1.442,0,0,0,1.06.407m2.934,6.1a2.316,2.316,0,0,0,.782-.136,2.2,2.2,0,0,0,.672-.375,1.85,1.85,0,0,0,.472-.595,1.746,1.746,0,0,0,.175-.789,1.866,1.866,0,0,0-.175-.821,1.728,1.728,0,0,0-.472-.6,2.059,2.059,0,0,0-.672-.368,2.445,2.445,0,0,0-.782-.123,2.11,2.11,0,0,0-.75.136,1.974,1.974,0,0,0-.627.375,1.81,1.81,0,0,0-.44.6,1.921,1.921,0,0,0-.168.808,1.8,1.8,0,0,0,.168.782,1.851,1.851,0,0,0,.44.595,1.928,1.928,0,0,0,.627.375,2.11,2.11,0,0,0,.75.136m-2.01-11.5h-1.816V33.7H151.69v1.5h.847a2.865,2.865,0,0,0-.427,1.512,2.693,2.693,0,0,0,.226,1.079,2.8,2.8,0,0,0,.646.911,3.26,3.26,0,0,0,1,.627,3.416,3.416,0,0,0,1.28.233c.11,0,.22-.006.336-.013s.22-.026.323-.039a3.224,3.224,0,0,0-1.086,1.183,3.363,3.363,0,0,0-.388,1.622,3.244,3.244,0,0,0,.284,1.351,3.314,3.314,0,0,0,.776,1.079,3.638,3.638,0,0,0,1.183.724,4.176,4.176,0,0,0,1.5.259,4.535,4.535,0,0,0,1.532-.259,3.748,3.748,0,0,0,1.215-.724,3.526,3.526,0,0,0,.814-1.086,3.167,3.167,0,0,0,.3-1.344,3.244,3.244,0,0,0-.3-1.4,3.349,3.349,0,0,0-.84-1.105h1.765V33.162h-1.816V34.94h-1.926V33.7h-2.741V32.71Zm1.06,6.25a2.716,2.716,0,0,0,.892-.989,2.6,2.6,0,0,0,.317-1.254,2.816,2.816,0,0,0-.427-1.512h.827v1.228h2v.659h-2v1.487h2v1.183a3.913,3.913,0,0,0-1.2-.659,4.465,4.465,0,0,0-1.461-.233,3.99,3.99,0,0,0-.485.026c-.155.013-.31.039-.465.065Zm-1.984-.879a1.4,1.4,0,0,1-1.041-.4,1.338,1.338,0,0,1-.394-.963,1.363,1.363,0,0,1,1.435-1.422,1.464,1.464,0,0,1,1.066.4,1.368,1.368,0,0,1,.407,1.021,1.3,1.3,0,0,1-.407.963,1.453,1.453,0,0,1-1.066.4Zm2.934,6.1a2.155,2.155,0,0,1-.737-.129,1.9,1.9,0,0,1-.621-.375,1.808,1.808,0,0,1-.433-.588,1.746,1.746,0,0,1-.168-.769,1.883,1.883,0,0,1,.168-.8,1.834,1.834,0,0,1,.433-.595,2.017,2.017,0,0,1,.621-.375,2.155,2.155,0,0,1,.737-.129,2.367,2.367,0,0,1,.769.123,2.179,2.179,0,0,1,.659.362,1.672,1.672,0,0,1,.459.595,1.79,1.79,0,0,1,.175.808,1.663,1.663,0,0,1-.175.769,1.878,1.878,0,0,1-.459.588,2.211,2.211,0,0,1-.659.375,2.076,2.076,0,0,1-.769.136Z" transform="translate(-151.684 -32.71)" fill="#fff"/>
      </g>
      <g id="그룹_109" data-name="그룹 109" transform="translate(109.815 26.353)">
        <path id="패스_515" data-name="패스 515" d="M189.5,45.2l.019-11.8,1.8.013L191.3,45.2Zm-2.592,0,.019-6.018-1.448-.013-.019,2.12-1.8-.013.019-5.862L179.67,35.4l.019-1.538,4.886.013a1.023,1.023,0,0,1,.685.181.858.858,0,0,1,.207.653v.465l1.448.013.019-1.79,1.758.013L188.674,45.2h-1.765Zm-1.448-7.53,1.448.013.019-1.008-1.467-.013Z" transform="translate(-179.663 -33.4)" fill="#fff"/>
        <path id="패스_516" data-name="패스 516" d="M191.282,33.442V45.193H189.53V33.442h1.752m-2.631,0V45.193h-1.713V39.163h-1.5V41.27h-1.752V35.388h-3.994V33.895h4.867a1,1,0,0,1,.672.181.832.832,0,0,1,.2.646v.5h1.5V33.442h1.719m-3.206,4.266h1.5V36.655h-1.5v1.054m5.869-4.3H189.5V45.225h1.816V33.41Zm-2.631,0h-1.777v1.777h-1.435v-.465a.847.847,0,0,0-.213-.666,1.061,1.061,0,0,0-.7-.187h-4.9v1.558h3.995v5.882h1.816V39.2h1.435v6.031h1.777V33.41Zm-3.206,4.266v-.989h1.435v.989Z" transform="translate(-179.66 -33.404)" fill="#fff"/>
      </g>
      <g id="그룹_110" data-name="그룹 110" transform="translate(123.892 26.276)">
        <path id="패스_517" data-name="패스 517" d="M210.487,45.326l.019-3.342-7.595-.019.019-1.525,7.556.013.019-7.078,1.8.013-.019,1.1,1.752.013-.019,1.5-1.719-.013-.019,1.06,1.752.013-.019,1.5-1.719-.013-.019,6.774h-1.79Zm-5.468-5.565a3.973,3.973,0,0,1-1.4-.246,3.582,3.582,0,0,1-1.125-.679,3.142,3.142,0,0,1-.75-1.015,2.972,2.972,0,0,1-.271-1.267,3.115,3.115,0,0,1,.265-1.286,3.227,3.227,0,0,1,.737-1.028,3.413,3.413,0,0,1,1.125-.685,4.056,4.056,0,0,1,1.422-.246,4.117,4.117,0,0,1,1.428.239,3.558,3.558,0,0,1,1.138.672,3.213,3.213,0,0,1,.756,1.028,3.107,3.107,0,0,1,.271,1.306,2.977,2.977,0,0,1-.278,1.267,3.18,3.18,0,0,1-.763,1.015,3.5,3.5,0,0,1-1.138.679A4.1,4.1,0,0,1,205.018,39.761Zm0-4.971a2.028,2.028,0,0,0-.724.123,1.656,1.656,0,0,0-.957.924,1.865,1.865,0,0,0-.136.717,1.635,1.635,0,0,0,.142.692,1.727,1.727,0,0,0,.375.549,1.6,1.6,0,0,0,.569.355,2.075,2.075,0,0,0,.737.123,2.137,2.137,0,0,0,.743-.129,1.7,1.7,0,0,0,.588-.362,1.611,1.611,0,0,0,.388-.543,1.709,1.709,0,0,0,.142-.685,1.759,1.759,0,0,0-.149-.717,1.838,1.838,0,0,0-.394-.562,1.793,1.793,0,0,0-.595-.362A2.249,2.249,0,0,0,205.018,34.79Z" transform="translate(-201.451 -33.291)" fill="#fff"/>
        <path id="패스_518" data-name="패스 518" d="M205.008,33.312a4.106,4.106,0,0,1,1.422.239,3.4,3.4,0,0,1,1.131.666,3.059,3.059,0,0,1,1.021,2.32,2.947,2.947,0,0,1-.278,1.26,3.306,3.306,0,0,1-.756,1.008,3.662,3.662,0,0,1-1.131.679,4.146,4.146,0,0,1-2.812,0,3.4,3.4,0,0,1-1.118-.672,3.269,3.269,0,0,1-.743-1.008,2.922,2.922,0,0,1-.271-1.26,3.106,3.106,0,0,1,.265-1.28,3.2,3.2,0,0,1,.737-1.021,3.494,3.494,0,0,1,1.118-.685,4.019,4.019,0,0,1,1.416-.246m0,4.971a2.01,2.01,0,0,0,.75-.136,2.035,2.035,0,0,0,.595-.362,1.679,1.679,0,0,0,.394-.549,1.776,1.776,0,0,0-.407-1.991,1.6,1.6,0,0,0-.595-.362,2.1,2.1,0,0,0-.737-.123,2.249,2.249,0,0,0-.73.123,1.6,1.6,0,0,0-.582.368,1.849,1.849,0,0,0-.388.569,1.877,1.877,0,0,0-.142.724,1.716,1.716,0,0,0,.142.7,1.671,1.671,0,0,0,.381.556,1.69,1.69,0,0,0,.575.355,2.11,2.11,0,0,0,.743.123M212.26,33.4v1.118h1.732v1.448H212.26v1.112h1.732v1.448H212.26V45.3h-1.752V41.935h-7.575v-1.48h7.575V33.4h1.752m-7.252-.116a4.092,4.092,0,0,0-1.428.246,3.458,3.458,0,0,0-1.131.692,3.2,3.2,0,0,0-.743,1.034,3.065,3.065,0,0,0-.265,1.293,2.891,2.891,0,0,0,.278,1.273,3.238,3.238,0,0,0,.75,1.021,3.363,3.363,0,0,0,1.131.679,3.867,3.867,0,0,0,1.409.246,4.071,4.071,0,0,0,1.416-.246,3.727,3.727,0,0,0,1.144-.679,3.206,3.206,0,0,0,.763-1.021,2.9,2.9,0,0,0,.284-1.273,3.022,3.022,0,0,0-.278-1.312,3.079,3.079,0,0,0-.756-1.034,3.367,3.367,0,0,0-1.144-.672,4.118,4.118,0,0,0-1.428-.246Zm0,4.971a2.039,2.039,0,0,1-.73-.123,1.656,1.656,0,0,1-.562-.349,1.615,1.615,0,0,1-.368-.543,1.738,1.738,0,0,1-.136-.692,1.834,1.834,0,0,1,.136-.711,1.673,1.673,0,0,1,.381-.556,1.571,1.571,0,0,1,.569-.355,2.143,2.143,0,0,1,.717-.123,2.052,2.052,0,0,1,.724.123,1.749,1.749,0,0,1,.588.355,1.689,1.689,0,0,1,.536,1.267,1.675,1.675,0,0,1-.136.679,1.526,1.526,0,0,1-.388.536,1.859,1.859,0,0,1-.588.356,1.9,1.9,0,0,1-.743.136Zm7.284-4.886h-1.816v7.065H202.9v1.545h7.575v3.361h1.816v-6.78h1.732V37.042h-1.732V35.995h1.732V34.482h-1.732V33.364Z" transform="translate(-201.44 -33.28)" fill="#fff"/>
      </g>
      <g id="그룹_111" data-name="그룹 111" transform="translate(137.673 25.895)">
        <path id="패스_519" data-name="패스 519" d="M231.887,45.094l.019-3.193-7.6-.013.019-1.538,7.569.013.019-7.207,1.8.013-.019,2.159,1.752.013-.019,1.525-1.719-.013-.019,8.235h-1.8Zm-5.481-5.332a3.327,3.327,0,0,1-1.286-.239,3.2,3.2,0,0,1-1.008-.64,2.993,2.993,0,0,1-.659-.918,2.525,2.525,0,0,1-.239-1.079,2.723,2.723,0,0,1,.562-1.687l-1.015-.026.019-1.487,2.753.013.019-1.008,1.8.013-.019.976,2.838.013-.019,1.487-1.028-.013a3.645,3.645,0,0,1,.407.808,2.737,2.737,0,0,1,.142.9,2.456,2.456,0,0,1-.239,1.073,3.005,3.005,0,0,1-.672.918,3.228,3.228,0,0,1-1.034.646A3.475,3.475,0,0,1,226.405,39.761Zm0-4.408a1.427,1.427,0,0,0-1.092.433,1.53,1.53,0,0,0-.407,1.1,1.549,1.549,0,0,0,.394,1.06,1.44,1.44,0,0,0,1.105.433,1.631,1.631,0,0,0,.621-.116,1.607,1.607,0,0,0,.491-.317,1.649,1.649,0,0,0,.336-.472,1.36,1.36,0,0,0,.129-.575,1.557,1.557,0,0,0-.116-.6,1.393,1.393,0,0,0-.336-.485,1.7,1.7,0,0,0-.5-.33A1.546,1.546,0,0,0,226.405,35.353Z" transform="translate(-222.76 -32.69)" fill="#fff"/>
        <path id="패스_520" data-name="패스 520" d="M227.31,32.742v.989h2.825v1.435h-1.079l.039.052a2.7,2.7,0,0,1,.556,1.674,2.448,2.448,0,0,1-.239,1.066,2.928,2.928,0,0,1-.666.911,3.256,3.256,0,0,1-1.028.64,3.483,3.483,0,0,1-1.312.239,3.317,3.317,0,0,1-1.28-.239,3.116,3.116,0,0,1-1-.633,2.916,2.916,0,0,1-.653-.911,2.6,2.6,0,0,1-.239-1.073,2.772,2.772,0,0,1,.142-.892,2.668,2.668,0,0,1,.414-.782l.039-.052h-1.041V33.731h2.766v-.989h1.758m-.9,5.656a1.55,1.55,0,0,0,.627-.123,1.473,1.473,0,0,0,.5-.323,1.562,1.562,0,0,0,.336-.478,1.389,1.389,0,0,0,.129-.582,1.48,1.48,0,0,0-.123-.608,1.447,1.447,0,0,0-.336-.491,1.549,1.549,0,0,0-.5-.33,1.665,1.665,0,0,0-.627-.116,1.46,1.46,0,0,0-1.105.44,1.549,1.549,0,0,0-.414,1.112,1.518,1.518,0,0,0,.4,1.066,1.437,1.437,0,0,0,1.118.433m7.265-5.2v2.178H235.4v1.48h-1.732v8.235h-1.752V41.882h-7.588V40.389h7.588V33.195h1.752m-6.328-.485h-1.816V33.7H222.76v1.5h1.008a2.724,2.724,0,0,0-.562,1.693,2.553,2.553,0,0,0,.239,1.086,3.02,3.02,0,0,0,.659.924,3.234,3.234,0,0,0,1.015.64,3.383,3.383,0,0,0,1.293.239,3.551,3.551,0,0,0,1.325-.239,3.332,3.332,0,0,0,1.041-.646,2.831,2.831,0,0,0,.672-.924,2.624,2.624,0,0,0,.239-1.079,2.8,2.8,0,0,0-.142-.911,2.685,2.685,0,0,0-.42-.782h1.047V33.7h-2.825V32.71Zm-.937,5.656a1.407,1.407,0,0,1-1.092-.427,1.62,1.62,0,0,1,.013-2.133,1.426,1.426,0,0,1,1.079-.427,1.577,1.577,0,0,1,1.112.44,1.4,1.4,0,0,1,.33.485,1.5,1.5,0,0,1,.116.595,1.305,1.305,0,0,1-.123.569,1.517,1.517,0,0,1-.33.465,1.579,1.579,0,0,1-1.105.433Zm7.3-5.2h-1.816V40.35H224.3v1.558h7.588v3.206H233.7V36.879h1.732V35.334H233.7V33.162Z" transform="translate(-222.76 -32.697)" fill="#fff"/>
      </g>
      <g id="그룹_112" data-name="그룹 112" transform="translate(151.563 26.353)">
        <path id="패스_521" data-name="패스 521" d="M253.351,45.2l.019-2.5-9.12-.013.019-1.525,2.049.013.019-3.568,1.829.013-.019,3.536,1.713.013.019-5.895-5.177-.013.019-1.525,6.153.013a.872.872,0,0,1,.614.181.823.823,0,0,1,.194.614v6.612l1.681.013.019-7.769,1.8.013-.019,2.721,1.752.013-.019,1.525-1.719-.013-.019,7.53h-1.81Z" transform="translate(-244.25 -33.4)" fill="#fff"/>
        <path id="패스_522" data-name="패스 522" d="M255.141,33.442v2.741h1.732v1.48h-1.732v7.53H253.39V42.672h-9.107v-1.48h2.068V37.637h1.784v3.555h1.758V35.246h-5.164v-1.48h6.134a.886.886,0,0,1,.608.175.816.816,0,0,1,.187.6v6.651h1.732v-7.75h1.752m.032-.032h-1.816v7.75H251.69V34.554a.821.821,0,0,0-.2-.627.908.908,0,0,0-.627-.187H244.7v1.545h5.164v5.882h-1.693V37.611h-1.849v3.555H244.25v1.545h9.1v2.521h1.816V37.7H256.9V36.151h-1.732V33.41Z" transform="translate(-244.25 -33.404)" fill="#fff"/>
      </g>
      <g id="그룹_342" data-name="그룹 342" transform="translate(167.108 26.295)">
        <path id="패스_1356" data-name="패스 1356" d="M336.855,391.745l-1.55-1.069,3.867-6.047a.983.983,0,0,1,.295-.3.572.572,0,0,1,.295-.1.563.563,0,0,1,.289.1.933.933,0,0,1,.288.294l3.908,6.06-1.535,1.056-2.949-4.717Zm9.736-5.073h1.728v1.535h-1.728v7.706h-1.8V384.135h1.8Z" transform="translate(-335.306 -384.053)" fill="#fff"/>
        <path id="패스_1357" data-name="패스 1357" d="M363.9,384.1h1.81v11.765h-8.2q-.864,0-.864-.782V390.71h1.81v1H363.9v-3.853h-2.221a2.9,2.9,0,0,1-.453.946,3.22,3.22,0,0,1-.774.761,3.864,3.864,0,0,1-1.028.508,3.912,3.912,0,0,1-1.214.185,3.832,3.832,0,0,1-1.392-.246,3.5,3.5,0,0,1-1.1-.672,3.172,3.172,0,0,1-.733-.988,2.741,2.741,0,0,1-.267-1.192,2.922,2.922,0,0,1,.26-1.228,3.066,3.066,0,0,1,.727-.994,3.486,3.486,0,0,1,1.1-.672,3.855,3.855,0,0,1,1.405-.247,4.08,4.08,0,0,1,1.193.171,3.717,3.717,0,0,1,1.015.48,3.24,3.24,0,0,1,.767.726,2.9,2.9,0,0,1,.466.926H363.9Zm-5.691,4.649a1.94,1.94,0,0,0,.665-.117,1.892,1.892,0,0,0,.576-.33,1.723,1.723,0,0,0,.411-.5,1.316,1.316,0,0,0,.158-.644,1.425,1.425,0,0,0-.158-.672,1.772,1.772,0,0,0-.411-.521,1.8,1.8,0,0,0-.583-.336,1.952,1.952,0,0,0-.658-.117,1.885,1.885,0,0,0-.658.117,1.661,1.661,0,0,0-.939.857,1.536,1.536,0,0,0-.144.672,1.462,1.462,0,0,0,.144.651,1.488,1.488,0,0,0,.39.5,1.889,1.889,0,0,0,.562.323A1.844,1.844,0,0,0,358.209,388.75Zm5.691,4.5h-5.444v1.083H363.9Z" transform="translate(-340.987 -384.019)" fill="#fff"/>
        <path id="패스_1358" data-name="패스 1358" d="M383.892,386.458h1.728v1.536h-1.728v7.912h-8.145a.973.973,0,0,1-.714-.212.867.867,0,0,1-.205-.625v-3.62h1.81v2.921h5.444v-3.949h-7.788a.825.825,0,0,1-.933-.932V384.47h6.651v1.535h-4.841v2.879h6.911v-4.73h1.81Z" transform="translate(-346.446 -384.059)" fill="#fff"/>
      </g>
    </g>
  </g>
</svg>
